<mxfile host="app.diagrams.net" modified="2023-11-29T00:23:14.477Z" agent="Mozilla/5.0 (Macintosh; Intel Mac OS X 10_15_7) AppleWebKit/537.36 (KHTML, like Gecko) Chrome/119.0.0.0 Safari/537.36" version="22.1.4" etag="9tUodc9AWpNo-_nln6Qz" type="device">
  <diagram id="JS7u867R8M9ZiHvgg1-n" name="Page-1">
    <mxGraphModel dx="1403" dy="2167" grid="1" gridSize="10" guides="1" tooltips="1" connect="1" arrows="1" fold="1" page="1" pageScale="1" pageWidth="850" pageHeight="1100" math="0" shadow="0">
      <root>
        <mxCell id="0" />
        <mxCell id="1" parent="0" />
        <mxCell id="cifkW_QOZoFGIp_55xrW-1" value="Add" style="shape=stencil(tZXRjoIwEEW/pq+bQsPq6wb1PyqOS2NtSdvV3b93oGCs0I0IJISkc7mHIb1DCcttySsgKS0J25A0TSjFO66vT2tuKyicL164EXwvwSvWGX2Cqzi4liFUCUa4WmVbQr/wmfpieaGVQojQygbKg44wLhR66a+Hta//C1YV8s/gwLRNNtXd68yPbAFqskSnIbPre95OZ6KGvSaL7NQ81ORNJsuxEgsxy/e8OH0b/aMOfVdUO2oDA8JdFlL6AYt9YMXruesJnXzWF/h/moawnVsK9eC+/wxaP5sKWI0FPGWMTvOvx9qz0P+ZTfOzsf7Q/sL+FVLbaHKwHgkPHguDmWs8vcQ2VX+ONIUb);whiteSpace=wrap;html=1;align=right;" vertex="1" parent="1">
          <mxGeometry x="187.5" y="50" width="50" height="100" as="geometry" />
        </mxCell>
        <mxCell id="cifkW_QOZoFGIp_55xrW-8" value="Read&lt;br&gt;register 1&lt;br&gt;&amp;nbsp; &amp;nbsp; &amp;nbsp; &amp;nbsp; &amp;nbsp; &amp;nbsp; &amp;nbsp; &amp;nbsp; &amp;nbsp; &amp;nbsp; &amp;nbsp;RD1&lt;br&gt;Read&lt;br&gt;register 2&lt;br&gt;&amp;nbsp; &amp;nbsp; &amp;nbsp; &amp;nbsp; &amp;nbsp; &amp;nbsp; &amp;nbsp; &amp;nbsp; &amp;nbsp; &amp;nbsp; &amp;nbsp;RD2&lt;br&gt;&lt;br&gt;Write register&lt;br&gt;&lt;br&gt;Write&lt;br&gt;data&lt;br&gt;&lt;br&gt;&lt;div style=&quot;text-align: center;&quot;&gt;&lt;b style=&quot;background-color: initial;&quot;&gt;Registers&lt;/b&gt;&lt;/div&gt;" style="rounded=0;whiteSpace=wrap;html=1;align=left;" vertex="1" parent="1">
          <mxGeometry x="380" y="345" width="100" height="190" as="geometry" />
        </mxCell>
        <mxCell id="cifkW_QOZoFGIp_55xrW-59" style="edgeStyle=orthogonalEdgeStyle;rounded=0;orthogonalLoop=1;jettySize=auto;html=1;exitX=1;exitY=0.5;exitDx=0;exitDy=0;entryX=0;entryY=0.5;entryDx=0;entryDy=0;" edge="1" parent="1" source="cifkW_QOZoFGIp_55xrW-9" target="cifkW_QOZoFGIp_55xrW-12">
          <mxGeometry relative="1" as="geometry">
            <Array as="points">
              <mxPoint x="240" y="470" />
              <mxPoint x="260" y="470" />
              <mxPoint x="260" y="245" />
            </Array>
          </mxGeometry>
        </mxCell>
        <mxCell id="cifkW_QOZoFGIp_55xrW-60" value="Instruction [6-0]" style="edgeLabel;html=1;align=center;verticalAlign=middle;resizable=0;points=[];" vertex="1" connectable="0" parent="cifkW_QOZoFGIp_55xrW-59">
          <mxGeometry x="0.7471" y="2" relative="1" as="geometry">
            <mxPoint x="-15" y="2" as="offset" />
          </mxGeometry>
        </mxCell>
        <mxCell id="cifkW_QOZoFGIp_55xrW-9" value="Read&lt;br&gt;address&lt;br&gt;&lt;br&gt;Instruction[31-0]&lt;br&gt;&lt;br&gt;&lt;br&gt;&lt;b&gt;Instruction&lt;br&gt;memory&lt;/b&gt;" style="rounded=0;whiteSpace=wrap;html=1;rotation=0;align=left;" vertex="1" parent="1">
          <mxGeometry x="150" y="385" width="90" height="130" as="geometry" />
        </mxCell>
        <mxCell id="cifkW_QOZoFGIp_55xrW-26" style="edgeStyle=orthogonalEdgeStyle;rounded=0;orthogonalLoop=1;jettySize=auto;html=1;exitX=1;exitY=0.5;exitDx=0;exitDy=0;" edge="1" parent="1" source="cifkW_QOZoFGIp_55xrW-10">
          <mxGeometry relative="1" as="geometry">
            <mxPoint x="150" y="400" as="targetPoint" />
          </mxGeometry>
        </mxCell>
        <mxCell id="cifkW_QOZoFGIp_55xrW-10" value="&lt;b&gt;PC&lt;/b&gt;" style="rounded=0;whiteSpace=wrap;html=1;rotation=0;" vertex="1" parent="1">
          <mxGeometry x="70" y="360" width="50" height="80" as="geometry" />
        </mxCell>
        <mxCell id="cifkW_QOZoFGIp_55xrW-75" style="edgeStyle=orthogonalEdgeStyle;rounded=0;orthogonalLoop=1;jettySize=auto;html=1;endArrow=dash;endFill=0;entryX=1;entryY=0.5;entryDx=0;entryDy=0;" edge="1" parent="1" target="cifkW_QOZoFGIp_55xrW-11">
          <mxGeometry relative="1" as="geometry">
            <mxPoint x="500" y="600.3157894736842" as="targetPoint" />
            <mxPoint x="550" y="180" as="sourcePoint" />
            <Array as="points">
              <mxPoint x="550" y="200" />
              <mxPoint x="550" y="600" />
            </Array>
          </mxGeometry>
        </mxCell>
        <mxCell id="cifkW_QOZoFGIp_55xrW-78" value="64" style="edgeLabel;html=1;align=center;verticalAlign=middle;resizable=0;points=[];" vertex="1" connectable="0" parent="cifkW_QOZoFGIp_55xrW-75">
          <mxGeometry x="0.9529" relative="1" as="geometry">
            <mxPoint y="-10" as="offset" />
          </mxGeometry>
        </mxCell>
        <mxCell id="cifkW_QOZoFGIp_55xrW-11" value="Imm&lt;br&gt;Gen" style="ellipse;whiteSpace=wrap;html=1;" vertex="1" parent="1">
          <mxGeometry x="400" y="560" width="50" height="80" as="geometry" />
        </mxCell>
        <mxCell id="cifkW_QOZoFGIp_55xrW-110" style="edgeStyle=orthogonalEdgeStyle;rounded=0;orthogonalLoop=1;jettySize=auto;html=1;entryX=0.5;entryY=1;entryDx=0;entryDy=0;exitX=0.945;exitY=0.259;exitDx=0;exitDy=0;exitPerimeter=0;" edge="1" parent="1" source="cifkW_QOZoFGIp_55xrW-12">
          <mxGeometry relative="1" as="geometry">
            <mxPoint x="449.9999941188821" y="210.00347826086963" as="sourcePoint" />
            <mxPoint x="870" y="514.96" as="targetPoint" />
            <Array as="points">
              <mxPoint x="446" y="210" />
              <mxPoint x="1020" y="210" />
              <mxPoint x="1020" y="630" />
              <mxPoint x="870" y="630" />
            </Array>
          </mxGeometry>
        </mxCell>
        <mxCell id="cifkW_QOZoFGIp_55xrW-111" value="MemRead" style="edgeLabel;html=1;align=center;verticalAlign=middle;resizable=0;points=[];" vertex="1" connectable="0" parent="cifkW_QOZoFGIp_55xrW-110">
          <mxGeometry x="-0.9385" y="-1" relative="1" as="geometry">
            <mxPoint x="12" y="-1" as="offset" />
          </mxGeometry>
        </mxCell>
        <mxCell id="cifkW_QOZoFGIp_55xrW-113" style="edgeStyle=orthogonalEdgeStyle;rounded=0;orthogonalLoop=1;jettySize=auto;html=1;entryX=0;entryY=0.5;entryDx=0;entryDy=0;endArrow=none;endFill=0;" edge="1" parent="1">
          <mxGeometry relative="1" as="geometry">
            <mxPoint x="450" y="232" as="sourcePoint" />
            <mxPoint x="968.3500000000001" y="464.25" as="targetPoint" />
            <Array as="points">
              <mxPoint x="453" y="232" />
              <mxPoint x="510" y="232" />
              <mxPoint x="510" y="270" />
              <mxPoint x="968" y="270" />
            </Array>
          </mxGeometry>
        </mxCell>
        <mxCell id="cifkW_QOZoFGIp_55xrW-114" value="MemtoReg" style="edgeLabel;html=1;align=center;verticalAlign=middle;resizable=0;points=[];" vertex="1" connectable="0" parent="cifkW_QOZoFGIp_55xrW-113">
          <mxGeometry x="-0.9318" y="1" relative="1" as="geometry">
            <mxPoint x="4" as="offset" />
          </mxGeometry>
        </mxCell>
        <mxCell id="cifkW_QOZoFGIp_55xrW-115" style="edgeStyle=orthogonalEdgeStyle;rounded=0;orthogonalLoop=1;jettySize=auto;html=1;entryX=0.5;entryY=1;entryDx=0;entryDy=0;endArrow=none;endFill=0;" edge="1" parent="1" source="cifkW_QOZoFGIp_55xrW-12" target="cifkW_QOZoFGIp_55xrW-30">
          <mxGeometry relative="1" as="geometry">
            <Array as="points">
              <mxPoint x="500" y="245" />
              <mxPoint x="500" y="760" />
              <mxPoint x="610" y="760" />
            </Array>
          </mxGeometry>
        </mxCell>
        <mxCell id="cifkW_QOZoFGIp_55xrW-116" value="ALUOp" style="edgeLabel;html=1;align=center;verticalAlign=middle;resizable=0;points=[];" vertex="1" connectable="0" parent="cifkW_QOZoFGIp_55xrW-115">
          <mxGeometry x="-0.9468" y="1" relative="1" as="geometry">
            <mxPoint x="1" y="1" as="offset" />
          </mxGeometry>
        </mxCell>
        <mxCell id="cifkW_QOZoFGIp_55xrW-117" style="edgeStyle=orthogonalEdgeStyle;rounded=0;orthogonalLoop=1;jettySize=auto;html=1;entryX=0.5;entryY=0;entryDx=0;entryDy=0;endArrow=none;endFill=0;" edge="1" parent="1" source="cifkW_QOZoFGIp_55xrW-12" target="cifkW_QOZoFGIp_55xrW-35">
          <mxGeometry relative="1" as="geometry">
            <Array as="points">
              <mxPoint x="870" y="280" />
            </Array>
          </mxGeometry>
        </mxCell>
        <mxCell id="cifkW_QOZoFGIp_55xrW-118" value="MemWrite" style="edgeLabel;html=1;align=center;verticalAlign=middle;resizable=0;points=[];" vertex="1" connectable="0" parent="cifkW_QOZoFGIp_55xrW-117">
          <mxGeometry x="-0.9177" y="1" relative="1" as="geometry">
            <mxPoint x="115" y="1" as="offset" />
          </mxGeometry>
        </mxCell>
        <mxCell id="cifkW_QOZoFGIp_55xrW-122" style="edgeStyle=orthogonalEdgeStyle;rounded=0;orthogonalLoop=1;jettySize=auto;html=1;exitX=0.5;exitY=1;exitDx=0;exitDy=0;endArrow=none;endFill=0;entryX=0.347;entryY=-0.001;entryDx=0;entryDy=0;entryPerimeter=0;" edge="1" parent="1" source="cifkW_QOZoFGIp_55xrW-12" target="cifkW_QOZoFGIp_55xrW-8">
          <mxGeometry relative="1" as="geometry">
            <mxPoint x="414.55555555555543" y="340" as="targetPoint" />
          </mxGeometry>
        </mxCell>
        <mxCell id="cifkW_QOZoFGIp_55xrW-123" value="RegWrite" style="edgeLabel;html=1;align=center;verticalAlign=middle;resizable=0;points=[];" vertex="1" connectable="0" parent="cifkW_QOZoFGIp_55xrW-122">
          <mxGeometry x="-0.5667" y="-1" relative="1" as="geometry">
            <mxPoint x="1" y="5" as="offset" />
          </mxGeometry>
        </mxCell>
        <mxCell id="cifkW_QOZoFGIp_55xrW-131" style="edgeStyle=orthogonalEdgeStyle;rounded=0;orthogonalLoop=1;jettySize=auto;html=1;entryX=0;entryY=0.5;entryDx=0;entryDy=0;" edge="1" parent="1" source="cifkW_QOZoFGIp_55xrW-12" target="cifkW_QOZoFGIp_55xrW-127">
          <mxGeometry relative="1" as="geometry">
            <Array as="points">
              <mxPoint x="415" />
              <mxPoint x="945" />
            </Array>
          </mxGeometry>
        </mxCell>
        <mxCell id="cifkW_QOZoFGIp_55xrW-132" value="Jump" style="edgeLabel;html=1;align=center;verticalAlign=middle;resizable=0;points=[];" vertex="1" connectable="0" parent="cifkW_QOZoFGIp_55xrW-131">
          <mxGeometry x="-0.649" y="-1" relative="1" as="geometry">
            <mxPoint as="offset" />
          </mxGeometry>
        </mxCell>
        <mxCell id="cifkW_QOZoFGIp_55xrW-12" value="CU" style="ellipse;whiteSpace=wrap;html=1;" vertex="1" parent="1">
          <mxGeometry x="380" y="170" width="70" height="150" as="geometry" />
        </mxCell>
        <mxCell id="cifkW_QOZoFGIp_55xrW-50" style="edgeStyle=orthogonalEdgeStyle;rounded=0;orthogonalLoop=1;jettySize=auto;html=1;exitX=1;exitY=0.5;exitDx=0;exitDy=0;entryX=0.008;entryY=0.923;entryDx=0;entryDy=0;entryPerimeter=0;" edge="1" parent="1" source="cifkW_QOZoFGIp_55xrW-13" target="cifkW_QOZoFGIp_55xrW-31">
          <mxGeometry relative="1" as="geometry">
            <mxPoint x="705" y="180" as="targetPoint" />
          </mxGeometry>
        </mxCell>
        <mxCell id="cifkW_QOZoFGIp_55xrW-13" value="Shift&amp;nbsp;&lt;br&gt;left1" style="ellipse;whiteSpace=wrap;html=1;" vertex="1" parent="1">
          <mxGeometry x="655" y="150" width="40" height="60" as="geometry" />
        </mxCell>
        <mxCell id="cifkW_QOZoFGIp_55xrW-53" style="edgeStyle=orthogonalEdgeStyle;rounded=0;orthogonalLoop=1;jettySize=auto;html=1;exitX=1;exitY=0.5;exitDx=0;exitDy=0;exitPerimeter=0;entryX=1;entryY=0.25;entryDx=0;entryDy=0;" edge="1" parent="1" source="cifkW_QOZoFGIp_55xrW-14" target="cifkW_QOZoFGIp_55xrW-34">
          <mxGeometry relative="1" as="geometry" />
        </mxCell>
        <mxCell id="cifkW_QOZoFGIp_55xrW-14" value="" style="shape=or;whiteSpace=wrap;html=1;" vertex="1" parent="1">
          <mxGeometry x="815" y="220" width="30" height="40" as="geometry" />
        </mxCell>
        <mxCell id="cifkW_QOZoFGIp_55xrW-27" value="" style="endArrow=classic;html=1;rounded=0;align=center;" edge="1" parent="1">
          <mxGeometry width="50" height="50" relative="1" as="geometry">
            <mxPoint x="152.5" y="140" as="sourcePoint" />
            <mxPoint x="187.5" y="140" as="targetPoint" />
          </mxGeometry>
        </mxCell>
        <mxCell id="cifkW_QOZoFGIp_55xrW-29" value="4" style="edgeLabel;html=1;align=center;verticalAlign=middle;resizable=0;points=[];" vertex="1" connectable="0" parent="cifkW_QOZoFGIp_55xrW-27">
          <mxGeometry x="-0.3605" relative="1" as="geometry">
            <mxPoint as="offset" />
          </mxGeometry>
        </mxCell>
        <mxCell id="cifkW_QOZoFGIp_55xrW-30" value="ALU&lt;br&gt;Control" style="ellipse;whiteSpace=wrap;html=1;" vertex="1" parent="1">
          <mxGeometry x="585" y="620" width="50" height="80" as="geometry" />
        </mxCell>
        <mxCell id="cifkW_QOZoFGIp_55xrW-31" value="Add&amp;nbsp; &amp;nbsp; &amp;nbsp; &amp;nbsp; Sum" style="shape=stencil(tZXRjoIwEEW/pq+bQsPq6wb1PyqOS2NtSdvV3b93oGCs0I0IJISkc7mHIb1DCcttySsgKS0J25A0TSjFO66vT2tuKyicL164EXwvwSvWGX2Cqzi4liFUCUa4WmVbQr/wmfpieaGVQojQygbKg44wLhR66a+Hta//C1YV8s/gwLRNNtXd68yPbAFqskSnIbPre95OZ6KGvSaL7NQ81ORNJsuxEgsxy/e8OH0b/aMOfVdUO2oDA8JdFlL6AYt9YMXruesJnXzWF/h/moawnVsK9eC+/wxaP5sKWI0FPGWMTvOvx9qz0P+ZTfOzsf7Q/sL+FVLbaHKwHgkPHguDmWs8vcQ2VX+ONIUb);whiteSpace=wrap;html=1;align=left;" vertex="1" parent="1">
          <mxGeometry x="715" y="60" width="80" height="130" as="geometry" />
        </mxCell>
        <mxCell id="cifkW_QOZoFGIp_55xrW-32" value="&amp;nbsp; &amp;nbsp; &amp;nbsp; &amp;nbsp; &amp;nbsp; &amp;nbsp; &amp;nbsp; &amp;nbsp;Zero&lt;br&gt;&lt;br&gt;&amp;nbsp; &amp;nbsp; &amp;nbsp;ALU&lt;br&gt;&amp;nbsp; &amp;nbsp; &amp;nbsp; &amp;nbsp; &amp;nbsp; &amp;nbsp; &amp;nbsp; &amp;nbsp;ALU&lt;br&gt;&lt;span style=&quot;white-space: pre;&quot;&gt;&#x9;&lt;/span&gt;&amp;nbsp; &amp;nbsp; &amp;nbsp; result" style="shape=stencil(tZXRjoIwEEW/pq+bQsPq6wb1PyqOS2NtSdvV3b93oGCs0I0IJISkc7mHIb1DCcttySsgKS0J25A0TSjFO66vT2tuKyicL164EXwvwSvWGX2Cqzi4liFUCUa4WmVbQr/wmfpieaGVQojQygbKg44wLhR66a+Hta//C1YV8s/gwLRNNtXd68yPbAFqskSnIbPre95OZ6KGvSaL7NQ81ORNJsuxEgsxy/e8OH0b/aMOfVdUO2oDA8JdFlL6AYt9YMXruesJnXzWF/h/moawnVsK9eC+/wxaP5sKWI0FPGWMTvOvx9qz0P+ZTfOzsf7Q/sL+FVLbaHKwHgkPHguDmWs8vcQ2VX+ONIUb);whiteSpace=wrap;html=1;align=left;" vertex="1" parent="1">
          <mxGeometry x="635" y="324.25" width="90" height="140" as="geometry" />
        </mxCell>
        <mxCell id="cifkW_QOZoFGIp_55xrW-101" style="edgeStyle=orthogonalEdgeStyle;rounded=0;orthogonalLoop=1;jettySize=auto;html=1;exitX=0.5;exitY=0;exitDx=0;exitDy=0;entryX=0;entryY=0.75;entryDx=0;entryDy=0;" edge="1" parent="1" source="cifkW_QOZoFGIp_55xrW-33" target="cifkW_QOZoFGIp_55xrW-8">
          <mxGeometry relative="1" as="geometry">
            <Array as="points">
              <mxPoint x="1003" y="494" />
              <mxPoint x="1003" y="730" />
              <mxPoint x="350" y="730" />
              <mxPoint x="350" y="488" />
              <mxPoint x="380" y="488" />
            </Array>
          </mxGeometry>
        </mxCell>
        <mxCell id="cifkW_QOZoFGIp_55xrW-33" value="&lt;div style=&quot;text-align: left;&quot;&gt;1&lt;/div&gt;&lt;div style=&quot;text-align: left;&quot;&gt;&lt;br&gt;&lt;/div&gt;&lt;div style=&quot;text-align: left;&quot;&gt;&lt;/div&gt;Mux&lt;br&gt;&lt;br&gt;&lt;div style=&quot;text-align: left;&quot;&gt;0&lt;/div&gt;" style="shape=trapezoid;perimeter=trapezoidPerimeter;whiteSpace=wrap;fixedSize=1;rotation=90;html=1;textDirection=ltr;horizontal=0;" vertex="1" parent="1">
          <mxGeometry x="923.96" y="478.68" width="87.36" height="30" as="geometry" />
        </mxCell>
        <mxCell id="cifkW_QOZoFGIp_55xrW-34" value="&lt;div style=&quot;text-align: left;&quot;&gt;0&lt;br&gt;&lt;/div&gt;&lt;div style=&quot;text-align: left;&quot;&gt;&lt;br&gt;&lt;/div&gt;&lt;div style=&quot;text-align: left;&quot;&gt;&lt;/div&gt;Mux&lt;br&gt;&lt;br&gt;&lt;div style=&quot;text-align: left;&quot;&gt;1&lt;/div&gt;" style="shape=trapezoid;perimeter=trapezoidPerimeter;whiteSpace=wrap;fixedSize=1;rotation=90;html=1;textDirection=ltr;horizontal=0;" vertex="1" parent="1">
          <mxGeometry x="825" y="60" width="90" height="30" as="geometry" />
        </mxCell>
        <mxCell id="cifkW_QOZoFGIp_55xrW-106" style="edgeStyle=orthogonalEdgeStyle;rounded=0;orthogonalLoop=1;jettySize=auto;html=1;" edge="1" parent="1" source="cifkW_QOZoFGIp_55xrW-35">
          <mxGeometry relative="1" as="geometry">
            <mxPoint x="950" y="460" as="targetPoint" />
            <Array as="points">
              <mxPoint x="920" y="460" />
              <mxPoint x="920" y="460" />
            </Array>
          </mxGeometry>
        </mxCell>
        <mxCell id="cifkW_QOZoFGIp_55xrW-35" value="Address&amp;nbsp; &amp;nbsp; RD&lt;br&gt;&lt;br&gt;&lt;br&gt;Write&lt;br&gt;data&lt;br&gt;&lt;br&gt;&lt;b&gt;Data Memory&lt;/b&gt;" style="rounded=0;whiteSpace=wrap;html=1;align=left;" vertex="1" parent="1">
          <mxGeometry x="830" y="440" width="80" height="110" as="geometry" />
        </mxCell>
        <mxCell id="cifkW_QOZoFGIp_55xrW-43" value="" style="endArrow=classic;html=1;rounded=0;entryX=0.002;entryY=0.1;entryDx=0;entryDy=0;entryPerimeter=0;" edge="1" parent="1" target="cifkW_QOZoFGIp_55xrW-1">
          <mxGeometry width="50" height="50" relative="1" as="geometry">
            <mxPoint x="130" y="400" as="sourcePoint" />
            <mxPoint x="270" y="50" as="targetPoint" />
            <Array as="points">
              <mxPoint x="130" y="60" />
            </Array>
          </mxGeometry>
        </mxCell>
        <mxCell id="cifkW_QOZoFGIp_55xrW-45" style="edgeStyle=orthogonalEdgeStyle;rounded=0;orthogonalLoop=1;jettySize=auto;html=1;exitX=1;exitY=0.5;exitDx=0;exitDy=0;entryX=0.173;entryY=1.052;entryDx=0;entryDy=0;entryPerimeter=0;" edge="1" parent="1" source="cifkW_QOZoFGIp_55xrW-1" target="cifkW_QOZoFGIp_55xrW-34">
          <mxGeometry relative="1" as="geometry" />
        </mxCell>
        <mxCell id="cifkW_QOZoFGIp_55xrW-51" style="edgeStyle=orthogonalEdgeStyle;rounded=0;orthogonalLoop=1;jettySize=auto;html=1;exitX=1;exitY=0.5;exitDx=0;exitDy=0;entryX=0.84;entryY=1.052;entryDx=0;entryDy=0;entryPerimeter=0;" edge="1" parent="1" source="cifkW_QOZoFGIp_55xrW-31" target="cifkW_QOZoFGIp_55xrW-34">
          <mxGeometry relative="1" as="geometry" />
        </mxCell>
        <mxCell id="cifkW_QOZoFGIp_55xrW-55" style="edgeStyle=orthogonalEdgeStyle;rounded=0;orthogonalLoop=1;jettySize=auto;html=1;exitX=0.995;exitY=0.317;exitDx=0;exitDy=0;entryX=0;entryY=0.75;entryDx=0;entryDy=0;entryPerimeter=0;exitPerimeter=0;" edge="1" parent="1" source="cifkW_QOZoFGIp_55xrW-32" target="cifkW_QOZoFGIp_55xrW-14">
          <mxGeometry relative="1" as="geometry" />
        </mxCell>
        <mxCell id="cifkW_QOZoFGIp_55xrW-61" value="" style="endArrow=classic;html=1;rounded=0;entryX=-0.027;entryY=0.085;entryDx=0;entryDy=0;entryPerimeter=0;" edge="1" parent="1" target="cifkW_QOZoFGIp_55xrW-8">
          <mxGeometry width="50" height="50" relative="1" as="geometry">
            <mxPoint x="260" y="360" as="sourcePoint" />
            <mxPoint x="410" y="420" as="targetPoint" />
            <Array as="points" />
          </mxGeometry>
        </mxCell>
        <mxCell id="cifkW_QOZoFGIp_55xrW-62" value="Instruction [19-15]" style="edgeLabel;html=1;align=center;verticalAlign=middle;resizable=0;points=[];" vertex="1" connectable="0" parent="cifkW_QOZoFGIp_55xrW-61">
          <mxGeometry x="-0.117" y="-2" relative="1" as="geometry">
            <mxPoint y="-2" as="offset" />
          </mxGeometry>
        </mxCell>
        <mxCell id="cifkW_QOZoFGIp_55xrW-63" value="" style="endArrow=classic;html=1;rounded=0;entryX=-0.004;entryY=0.289;entryDx=0;entryDy=0;entryPerimeter=0;" edge="1" parent="1" target="cifkW_QOZoFGIp_55xrW-8">
          <mxGeometry width="50" height="50" relative="1" as="geometry">
            <mxPoint x="260" y="400" as="sourcePoint" />
            <mxPoint x="380" y="410" as="targetPoint" />
            <Array as="points" />
          </mxGeometry>
        </mxCell>
        <mxCell id="cifkW_QOZoFGIp_55xrW-64" value="Instruction [24-20]" style="edgeLabel;html=1;align=center;verticalAlign=middle;resizable=0;points=[];" vertex="1" connectable="0" parent="cifkW_QOZoFGIp_55xrW-63">
          <mxGeometry x="-0.1527" y="3" relative="1" as="geometry">
            <mxPoint as="offset" />
          </mxGeometry>
        </mxCell>
        <mxCell id="cifkW_QOZoFGIp_55xrW-67" value="" style="endArrow=classic;html=1;rounded=0;entryX=-0.009;entryY=0.553;entryDx=0;entryDy=0;entryPerimeter=0;" edge="1" parent="1" target="cifkW_QOZoFGIp_55xrW-8">
          <mxGeometry width="50" height="50" relative="1" as="geometry">
            <mxPoint x="260" y="450" as="sourcePoint" />
            <mxPoint x="370" y="460" as="targetPoint" />
            <Array as="points">
              <mxPoint x="320" y="450" />
            </Array>
          </mxGeometry>
        </mxCell>
        <mxCell id="cifkW_QOZoFGIp_55xrW-69" value="Instruction [11-7]" style="edgeLabel;html=1;align=center;verticalAlign=middle;resizable=0;points=[];" vertex="1" connectable="0" parent="cifkW_QOZoFGIp_55xrW-67">
          <mxGeometry x="-0.0579" y="1" relative="1" as="geometry">
            <mxPoint as="offset" />
          </mxGeometry>
        </mxCell>
        <mxCell id="cifkW_QOZoFGIp_55xrW-70" value="" style="endArrow=dash;html=1;rounded=0;entryX=0;entryY=0.5;entryDx=0;entryDy=0;endFill=0;" edge="1" parent="1" target="cifkW_QOZoFGIp_55xrW-11">
          <mxGeometry width="50" height="50" relative="1" as="geometry">
            <mxPoint x="260" y="470" as="sourcePoint" />
            <mxPoint x="350" y="600" as="targetPoint" />
            <Array as="points">
              <mxPoint x="260" y="600" />
            </Array>
          </mxGeometry>
        </mxCell>
        <mxCell id="cifkW_QOZoFGIp_55xrW-72" value="Instruction [31-0]" style="edgeLabel;html=1;align=center;verticalAlign=middle;resizable=0;points=[];" vertex="1" connectable="0" parent="cifkW_QOZoFGIp_55xrW-70">
          <mxGeometry x="0.4375" y="1" relative="1" as="geometry">
            <mxPoint x="-24" y="1" as="offset" />
          </mxGeometry>
        </mxCell>
        <mxCell id="cifkW_QOZoFGIp_55xrW-73" value="32" style="edgeLabel;html=1;align=center;verticalAlign=middle;resizable=0;points=[];" vertex="1" connectable="0" parent="cifkW_QOZoFGIp_55xrW-70">
          <mxGeometry x="0.9006" y="2" relative="1" as="geometry">
            <mxPoint y="-8" as="offset" />
          </mxGeometry>
        </mxCell>
        <mxCell id="cifkW_QOZoFGIp_55xrW-77" value="" style="endArrow=classic;html=1;rounded=0;entryX=0;entryY=0.5;entryDx=0;entryDy=0;" edge="1" parent="1" target="cifkW_QOZoFGIp_55xrW-13">
          <mxGeometry width="50" height="50" relative="1" as="geometry">
            <mxPoint x="550" y="180" as="sourcePoint" />
            <mxPoint x="550" y="170" as="targetPoint" />
          </mxGeometry>
        </mxCell>
        <mxCell id="cifkW_QOZoFGIp_55xrW-87" style="edgeStyle=orthogonalEdgeStyle;rounded=0;orthogonalLoop=1;jettySize=auto;html=1;exitX=1;exitY=0.5;exitDx=0;exitDy=0;entryX=0.637;entryY=0.832;entryDx=0;entryDy=0;entryPerimeter=0;" edge="1" parent="1" source="cifkW_QOZoFGIp_55xrW-30" target="cifkW_QOZoFGIp_55xrW-32">
          <mxGeometry relative="1" as="geometry" />
        </mxCell>
        <mxCell id="cifkW_QOZoFGIp_55xrW-88" value="&lt;div style=&quot;text-align: left;&quot;&gt;0&lt;br&gt;&lt;/div&gt;&lt;div style=&quot;text-align: left;&quot;&gt;&lt;br&gt;&lt;/div&gt;&lt;div style=&quot;text-align: left;&quot;&gt;&lt;/div&gt;Mux&lt;br&gt;&lt;br&gt;&lt;div style=&quot;text-align: left;&quot;&gt;1&lt;/div&gt;" style="shape=trapezoid;perimeter=trapezoidPerimeter;whiteSpace=wrap;fixedSize=1;rotation=90;html=1;textDirection=ltr;horizontal=0;" vertex="1" parent="1">
          <mxGeometry x="545" y="434.25" width="90" height="30" as="geometry" />
        </mxCell>
        <mxCell id="cifkW_QOZoFGIp_55xrW-89" style="edgeStyle=orthogonalEdgeStyle;rounded=0;orthogonalLoop=1;jettySize=auto;html=1;entryX=0.172;entryY=1;entryDx=0;entryDy=0;entryPerimeter=0;" edge="1" parent="1" source="cifkW_QOZoFGIp_55xrW-8" target="cifkW_QOZoFGIp_55xrW-88">
          <mxGeometry relative="1" as="geometry" />
        </mxCell>
        <mxCell id="cifkW_QOZoFGIp_55xrW-90" style="edgeStyle=orthogonalEdgeStyle;rounded=0;orthogonalLoop=1;jettySize=auto;html=1;exitX=0.5;exitY=0;exitDx=0;exitDy=0;entryX=-0.029;entryY=0.896;entryDx=0;entryDy=0;entryPerimeter=0;" edge="1" parent="1" source="cifkW_QOZoFGIp_55xrW-88" target="cifkW_QOZoFGIp_55xrW-32">
          <mxGeometry relative="1" as="geometry" />
        </mxCell>
        <mxCell id="cifkW_QOZoFGIp_55xrW-91" value="" style="endArrow=classic;html=1;rounded=0;entryX=0.83;entryY=1.04;entryDx=0;entryDy=0;entryPerimeter=0;" edge="1" parent="1" target="cifkW_QOZoFGIp_55xrW-88">
          <mxGeometry width="50" height="50" relative="1" as="geometry">
            <mxPoint x="550" y="479" as="sourcePoint" />
            <mxPoint x="570" y="479.25" as="targetPoint" />
          </mxGeometry>
        </mxCell>
        <mxCell id="cifkW_QOZoFGIp_55xrW-93" value="" style="endArrow=classic;html=1;rounded=0;entryX=-0.032;entryY=0.645;entryDx=0;entryDy=0;entryPerimeter=0;" edge="1" parent="1" target="cifkW_QOZoFGIp_55xrW-35">
          <mxGeometry width="50" height="50" relative="1" as="geometry">
            <mxPoint x="510" y="440" as="sourcePoint" />
            <mxPoint x="828" y="511" as="targetPoint" />
            <Array as="points">
              <mxPoint x="510" y="510" />
            </Array>
          </mxGeometry>
        </mxCell>
        <mxCell id="cifkW_QOZoFGIp_55xrW-99" value="" style="endArrow=classic;html=1;rounded=0;entryX=0;entryY=0.5;entryDx=0;entryDy=0;" edge="1" parent="1" target="cifkW_QOZoFGIp_55xrW-30">
          <mxGeometry width="50" height="50" relative="1" as="geometry">
            <mxPoint x="370" y="600" as="sourcePoint" />
            <mxPoint x="610" y="640" as="targetPoint" />
            <Array as="points">
              <mxPoint x="370" y="660" />
              <mxPoint x="460" y="660" />
            </Array>
          </mxGeometry>
        </mxCell>
        <mxCell id="cifkW_QOZoFGIp_55xrW-100" value="Instruction [30, 14-12]" style="edgeLabel;html=1;align=center;verticalAlign=middle;resizable=0;points=[];" vertex="1" connectable="0" parent="cifkW_QOZoFGIp_55xrW-99">
          <mxGeometry x="0.4069" y="3" relative="1" as="geometry">
            <mxPoint x="-63" y="3" as="offset" />
          </mxGeometry>
        </mxCell>
        <mxCell id="cifkW_QOZoFGIp_55xrW-102" style="edgeStyle=orthogonalEdgeStyle;rounded=0;orthogonalLoop=1;jettySize=auto;html=1;exitX=1;exitY=0;exitDx=0;exitDy=0;entryX=-0.057;entryY=0.088;entryDx=0;entryDy=0;entryPerimeter=0;" edge="1" parent="1" source="cifkW_QOZoFGIp_55xrW-8" target="cifkW_QOZoFGIp_55xrW-32">
          <mxGeometry relative="1" as="geometry">
            <Array as="points">
              <mxPoint x="480" y="360" />
              <mxPoint x="600" y="360" />
              <mxPoint x="600" y="337" />
            </Array>
          </mxGeometry>
        </mxCell>
        <mxCell id="cifkW_QOZoFGIp_55xrW-104" value="" style="endArrow=classic;html=1;rounded=0;" edge="1" parent="1">
          <mxGeometry width="50" height="50" relative="1" as="geometry">
            <mxPoint x="795" y="450" as="sourcePoint" />
            <mxPoint x="950" y="520" as="targetPoint" />
            <Array as="points">
              <mxPoint x="795" y="600" />
              <mxPoint x="920" y="600" />
              <mxPoint x="920" y="520" />
              <mxPoint x="930" y="520" />
              <mxPoint x="940" y="520" />
            </Array>
          </mxGeometry>
        </mxCell>
        <mxCell id="cifkW_QOZoFGIp_55xrW-107" style="edgeStyle=orthogonalEdgeStyle;rounded=0;orthogonalLoop=1;jettySize=auto;html=1;exitX=1;exitY=0;exitDx=0;exitDy=0;entryX=0;entryY=0.25;entryDx=0;entryDy=0;entryPerimeter=0;endArrow=none;endFill=0;" edge="1" parent="1" source="cifkW_QOZoFGIp_55xrW-12" target="cifkW_QOZoFGIp_55xrW-14">
          <mxGeometry relative="1" as="geometry" />
        </mxCell>
        <mxCell id="cifkW_QOZoFGIp_55xrW-109" value="Branch" style="edgeLabel;html=1;align=center;verticalAlign=middle;resizable=0;points=[];" vertex="1" connectable="0" parent="cifkW_QOZoFGIp_55xrW-107">
          <mxGeometry x="-0.7424" y="1" relative="1" as="geometry">
            <mxPoint as="offset" />
          </mxGeometry>
        </mxCell>
        <mxCell id="cifkW_QOZoFGIp_55xrW-119" style="edgeStyle=orthogonalEdgeStyle;rounded=0;orthogonalLoop=1;jettySize=auto;html=1;entryX=0.111;entryY=0.386;entryDx=0;entryDy=0;entryPerimeter=0;" edge="1" parent="1" source="cifkW_QOZoFGIp_55xrW-12" target="cifkW_QOZoFGIp_55xrW-88">
          <mxGeometry relative="1" as="geometry">
            <Array as="points">
              <mxPoint x="593" y="290" />
            </Array>
          </mxGeometry>
        </mxCell>
        <mxCell id="cifkW_QOZoFGIp_55xrW-120" value="ALUSrc" style="edgeLabel;html=1;align=center;verticalAlign=middle;resizable=0;points=[];" vertex="1" connectable="0" parent="cifkW_QOZoFGIp_55xrW-119">
          <mxGeometry x="-0.8755" relative="1" as="geometry">
            <mxPoint x="10" as="offset" />
          </mxGeometry>
        </mxCell>
        <mxCell id="cifkW_QOZoFGIp_55xrW-124" style="edgeStyle=orthogonalEdgeStyle;rounded=0;orthogonalLoop=1;jettySize=auto;html=1;entryX=0;entryY=0.091;entryDx=0;entryDy=0;entryPerimeter=0;" edge="1" parent="1" source="cifkW_QOZoFGIp_55xrW-32" target="cifkW_QOZoFGIp_55xrW-35">
          <mxGeometry relative="1" as="geometry" />
        </mxCell>
        <mxCell id="cifkW_QOZoFGIp_55xrW-125" value="" style="endArrow=classic;html=1;rounded=0;entryX=-0.046;entryY=0.127;entryDx=0;entryDy=0;entryPerimeter=0;" edge="1" parent="1" target="cifkW_QOZoFGIp_55xrW-31">
          <mxGeometry width="50" height="50" relative="1" as="geometry">
            <mxPoint x="130" y="200" as="sourcePoint" />
            <mxPoint x="180" y="150" as="targetPoint" />
            <Array as="points">
              <mxPoint x="240" y="200" />
              <mxPoint x="240" y="160" />
              <mxPoint x="630" y="160" />
              <mxPoint x="630" y="77" />
            </Array>
          </mxGeometry>
        </mxCell>
        <mxCell id="cifkW_QOZoFGIp_55xrW-133" style="edgeStyle=orthogonalEdgeStyle;rounded=0;orthogonalLoop=1;jettySize=auto;html=1;entryX=0;entryY=0.5;entryDx=0;entryDy=0;" edge="1" parent="1" source="cifkW_QOZoFGIp_55xrW-127" target="cifkW_QOZoFGIp_55xrW-10">
          <mxGeometry relative="1" as="geometry">
            <Array as="points">
              <mxPoint x="1030" y="75" />
              <mxPoint x="1030" y="-40" />
              <mxPoint x="50" y="-40" />
              <mxPoint x="50" y="400" />
            </Array>
          </mxGeometry>
        </mxCell>
        <mxCell id="cifkW_QOZoFGIp_55xrW-127" value="&lt;div style=&quot;text-align: left;&quot;&gt;0&lt;br&gt;&lt;/div&gt;&lt;div style=&quot;text-align: left;&quot;&gt;&lt;br&gt;&lt;/div&gt;&lt;div style=&quot;text-align: left;&quot;&gt;&lt;/div&gt;Mux&lt;br&gt;&lt;br&gt;&lt;div style=&quot;text-align: left;&quot;&gt;1&lt;/div&gt;" style="shape=trapezoid;perimeter=trapezoidPerimeter;whiteSpace=wrap;fixedSize=1;rotation=90;html=1;textDirection=ltr;horizontal=0;" vertex="1" parent="1">
          <mxGeometry x="900" y="60" width="90" height="30" as="geometry" />
        </mxCell>
        <mxCell id="cifkW_QOZoFGIp_55xrW-135" style="edgeStyle=orthogonalEdgeStyle;rounded=0;orthogonalLoop=1;jettySize=auto;html=1;exitX=0.25;exitY=0;exitDx=0;exitDy=0;entryX=0.246;entryY=1.146;entryDx=0;entryDy=0;entryPerimeter=0;" edge="1" parent="1" source="cifkW_QOZoFGIp_55xrW-34" target="cifkW_QOZoFGIp_55xrW-127">
          <mxGeometry relative="1" as="geometry" />
        </mxCell>
      </root>
    </mxGraphModel>
  </diagram>
</mxfile>
